<?xml version="1.0" standalone="no"?>
<!DOCTYPE svg PUBLIC "-//W3C//DTD SVG 20010904//EN"
 "http://www.w3.org/TR/2001/REC-SVG-20010904/DTD/svg10.dtd">
<svg version="1.0" xmlns="http://www.w3.org/2000/svg"
 width="682.000000pt" height="268.000000pt" viewBox="0 0 682.000000 268.000000"
 preserveAspectRatio="xMidYMid meet">

<g transform="translate(0.000000,268.000000) scale(0.100000,-0.100000)"
fill="#000000" stroke="none">
<path d="M1280 1805 l0 -44 -127 -3 -128 -3 -3 -62 -3 -63 346 0 345 0 0 65 0
65 -125 0 -125 0 0 45 0 45 -90 0 -90 0 0 -45z"/>
<path d="M1792 1433 l3 -408 87 -3 88 -3 2 168 3 168 73 3 72 3 0 69 0 70 -75
0 -75 0 0 170 0 170 -90 0 -90 0 2 -407z"/>
<path d="M4260 1760 l0 -80 -135 0 c-134 0 -136 0 -176 29 -129 94 -321 78
-431 -36 -58 -60 -82 -124 -82 -218 0 -130 56 -220 172 -277 59 -29 76 -33
147 -33 86 1 143 20 208 69 32 25 40 26 165 26 l132 0 0 -145 0 -146 88 3 87
3 3 443 2 442 -90 0 -90 0 0 -80z m-458 -150 c118 -33 143 -217 39 -287 -40
-27 -117 -31 -161 -8 -88 46 -106 186 -34 259 41 41 94 53 156 36z m458 -155
l0 -75 -95 0 -95 0 0 75 0 75 95 0 95 0 0 -75z"/>
<path d="M2350 1720 l0 -70 330 0 330 0 0 -54 c0 -54 -16 -194 -26 -228 -5
-17 -32 -18 -390 -18 l-385 0 3 -67 3 -68 548 -3 547 -2 0 70 0 70 -76 0 -77
0 8 43 c11 67 24 235 25 320 l0 77 -420 0 -420 0 0 -70z"/>
<path d="M4760 1720 l0 -70 330 0 330 0 -1 -72 c0 -40 -6 -107 -12 -148 l-12
-75 -388 -3 -388 -2 3 -68 3 -67 550 0 550 0 3 68 3 67 -82 0 -81 0 6 33 c13
69 26 226 26 315 l0 92 -420 0 -420 0 0 -70z"/>
<path d="M1230 1585 c-98 -28 -160 -88 -160 -154 0 -69 70 -139 160 -161 48
-11 50 -13 50 -46 l0 -34 -138 0 c-76 0 -141 -2 -144 -5 -6 -7 11 -118 20
-127 10 -9 477 8 597 23 143 17 142 16 135 80 -6 62 12 58 -177 44 l-113 -8 0
30 c0 26 5 30 56 46 103 32 144 78 144 161 0 39 -6 52 -35 85 -21 23 -55 46
-83 56 -67 24 -241 29 -312 10z m213 -106 c52 -14 70 -51 39 -82 -17 -17 -37
-22 -91 -25 -86 -5 -139 11 -147 44 -4 14 -1 31 6 39 26 31 123 44 193 24z"/>
<path d="M2340 865 l0 -225 420 0 420 0 0 225 0 225 -420 0 -420 0 0 -225z
m670 0 l0 -85 -250 0 -250 0 0 85 0 85 250 0 250 0 0 -85z"/>
<path d="M4757 1083 c-4 -3 -7 -105 -7 -225 l0 -218 420 0 420 0 0 225 0 225
-413 0 c-228 0 -417 -3 -420 -7z m663 -218 l0 -85 -245 0 -245 0 0 85 0 85
245 0 245 0 0 -85z"/>
<path d="M3630 845 l0 -195 415 0 415 0 0 70 0 70 -325 0 -325 0 0 125 0 125
-90 0 -90 0 0 -195z"/>
<path d="M1365 996 c-80 -19 -113 -32 -152 -62 -89 -67 -82 -175 14 -238 76
-49 142 -61 338 -61 159 0 188 3 252 23 86 27 138 68 154 123 26 87 -30 161
-151 201 -84 27 -360 36 -455 14z m298 -116 c95 -10 137 -28 137 -60 0 -32
-42 -50 -142 -61 -111 -11 -268 2 -304 26 -59 38 -12 83 98 95 105 11 114 11
211 0z"/>
</g>
</svg>
